<svg xmlns="http://www.w3.org/2000/svg" xmlns:xlink="http://www.w3.org/1999/xlink" width="961" zoomAndPan="magnify" viewBox="0 0 720.75 195.000001" height="260" preserveAspectRatio="xMidYMid meet" version="1.0"><defs><clipPath id="5a6f71c8be"><path d="M 72 108 L 196 108 L 196 194.003906 L 72 194.003906 Z M 72 108 " clip-rule="nonzero"/></clipPath><clipPath id="f952de3106"><path d="M 1.714844 0 L 121 0 L 121 180 L 1.714844 180 Z M 1.714844 0 " clip-rule="nonzero"/></clipPath></defs><g clip-path="url(#5a6f71c8be)"><path fill="#008c44" d="M 72.714844 190.480469 C 80.992188 192.777344 89.710938 194.003906 98.71875 194.003906 C 148.382812 194.003906 189.332031 156.679688 195.039062 108.546875 L 105.65625 108.546875 Z M 72.714844 190.480469 " fill-opacity="1" fill-rule="nonzero"/></g><path fill="#8dc63f" d="M 115.332031 84.480469 L 194.917969 84.480469 C 190.84375 52.878906 171.566406 26.042969 144.65625 11.546875 Z M 115.332031 84.480469 " fill-opacity="1" fill-rule="nonzero"/><g clip-path="url(#f952de3106)"><path fill="#d7df23" d="M 120.671875 2.496094 L 48.46875 179.992188 C 20.441406 162.984375 1.714844 132.179688 1.714844 97.003906 C 1.714844 43.429688 45.144531 0 98.71875 0 C 106.265625 0 113.617188 0.863281 120.671875 2.496094 Z M 120.671875 2.496094 " fill-opacity="1" fill-rule="nonzero"/></g><path fill="#ffffff" d="M 235.003906 151.621094 L 281.066406 40.046875 L 293.859375 40.046875 L 339.597656 151.621094 L 335.582031 151.621094 C 326.035156 151.621094 317.457031 145.792969 313.9375 136.917969 L 283.941406 61.246094 L 290.660156 61.246094 L 254.515625 151.621094 Z M 257.714844 128.535156 L 257.714844 112.59375 L 317.046875 112.59375 L 317.046875 128.535156 Z M 257.714844 128.535156 " fill-opacity="1" fill-rule="nonzero"/><path fill="#ffffff" d="M 378.710938 153.214844 C 372.207031 153.214844 366.394531 151.78125 361.277344 148.910156 C 356.265625 146.042969 352.324219 142.109375 349.445312 137.117188 C 346.671875 132.015625 345.285156 126.171875 345.285156 119.582031 L 345.285156 75.113281 L 362.878906 75.113281 L 362.878906 118.785156 C 362.878906 122.507812 363.464844 125.695312 364.636719 128.351562 C 365.917969 130.902344 367.730469 132.867188 370.074219 134.246094 C 372.527344 135.628906 375.40625 136.320312 378.710938 136.320312 C 383.828125 136.320312 387.71875 134.832031 390.386719 131.855469 C 393.15625 128.773438 394.542969 124.417969 394.542969 118.785156 L 394.542969 75.113281 L 412.136719 75.113281 L 412.136719 119.582031 C 412.136719 126.277344 410.695312 132.175781 407.816406 137.277344 C 405.046875 142.269531 401.152344 146.203125 396.144531 149.070312 C 391.132812 151.832031 385.320312 153.214844 378.710938 153.214844 Z M 378.710938 153.214844 " fill-opacity="1" fill-rule="nonzero"/><path fill="#ffffff" d="M 458.769531 153.214844 C 451.839844 153.214844 445.550781 151.460938 439.898438 147.953125 C 434.355469 144.449219 429.929688 139.71875 426.625 133.769531 C 423.425781 127.710938 421.828125 120.964844 421.828125 113.527344 C 421.828125 105.984375 423.425781 99.234375 426.625 93.285156 C 429.929688 87.226562 434.355469 82.445312 439.898438 78.941406 C 445.550781 75.328125 451.839844 73.519531 458.769531 73.519531 C 464.632812 73.519531 469.804688 74.796875 474.28125 77.34375 C 478.867188 79.789062 482.492188 83.191406 485.160156 87.546875 C 487.824219 91.902344 489.15625 96.84375 489.15625 102.371094 L 489.15625 124.367188 C 489.15625 129.890625 487.824219 134.832031 485.160156 139.1875 C 482.597656 143.546875 479.027344 147 474.445312 149.550781 C 469.859375 151.992188 464.632812 153.214844 458.769531 153.214844 Z M 461.648438 136.636719 C 466.019531 136.636719 469.804688 135.683594 473.003906 133.769531 C 476.308594 131.75 478.867188 128.988281 480.679688 125.480469 C 482.492188 121.976562 483.398438 117.9375 483.398438 113.367188 C 483.398438 108.796875 482.492188 104.761719 480.679688 101.253906 C 478.867188 97.746094 476.308594 95.039062 473.003906 93.125 C 469.804688 91.105469 466.019531 90.097656 461.648438 90.097656 C 457.382812 90.097656 453.597656 91.105469 450.292969 93.125 C 447.09375 95.039062 444.535156 97.746094 442.617188 101.253906 C 440.804688 104.761719 439.898438 108.796875 439.898438 113.367188 C 439.898438 117.9375 440.804688 121.976562 442.617188 125.480469 C 444.535156 128.988281 447.09375 131.75 450.292969 133.769531 C 453.597656 135.683594 457.382812 136.636719 461.648438 136.636719 Z M 499.871094 151.621094 C 490.15625 151.621094 482.28125 143.746094 482.28125 134.027344 L 482.28125 131.058594 L 485.316406 112.410156 L 482.28125 93.921875 L 482.28125 36.859375 L 499.871094 36.859375 Z M 499.871094 151.621094 " fill-opacity="1" fill-rule="nonzero"/><path fill="#ffffff" d="M 541.304688 153.214844 C 537.039062 153.214844 532.933594 152.683594 528.992188 151.621094 C 525.046875 150.453125 521.421875 148.859375 518.117188 146.839844 C 514.8125 144.714844 511.933594 142.164062 509.480469 139.1875 L 520.675781 128.03125 C 523.339844 131.113281 526.378906 133.449219 529.789062 135.042969 C 533.308594 136.53125 537.253906 137.277344 541.625 137.277344 C 545.570312 137.277344 548.554688 136.691406 550.582031 135.523438 C 552.605469 134.355469 553.621094 132.652344 553.621094 130.421875 C 553.621094 128.085938 552.660156 126.277344 550.742188 125.003906 C 548.820312 123.726562 546.316406 122.664062 543.222656 121.816406 C 540.238281 120.859375 537.039062 119.902344 533.628906 118.945312 C 530.324219 117.988281 527.125 116.714844 524.03125 115.121094 C 521.046875 113.421875 518.59375 111.136719 516.675781 108.265625 C 514.757812 105.398438 513.796875 101.679688 513.796875 97.109375 C 513.796875 92.222656 514.917969 88.023438 517.15625 84.519531 C 519.5 81.011719 522.753906 78.300781 526.910156 76.390625 C 531.175781 74.476562 536.242188 73.519531 542.105469 73.519531 C 548.289062 73.519531 553.726562 74.636719 558.417969 76.867188 C 563.214844 78.992188 567.214844 82.234375 570.410156 86.589844 L 559.21875 97.746094 C 556.976562 94.984375 554.417969 92.914062 551.539062 91.53125 C 548.660156 90.148438 545.355469 89.460938 541.625 89.460938 C 538.105469 89.460938 535.386719 89.992188 533.46875 91.054688 C 531.550781 92.117188 530.589844 93.65625 530.589844 95.675781 C 530.589844 97.800781 531.550781 99.449219 533.46875 100.617188 C 535.386719 101.785156 537.839844 102.792969 540.824219 103.644531 C 543.917969 104.496094 547.117188 105.453125 550.421875 106.515625 C 553.832031 107.46875 557.03125 108.851562 560.015625 110.65625 C 563.109375 112.359375 565.613281 114.695312 567.53125 117.671875 C 569.453125 120.539062 570.410156 124.3125 570.410156 128.988281 C 570.410156 136.425781 567.800781 142.324219 562.574219 146.679688 C 557.351562 151.035156 550.261719 153.214844 541.304688 153.214844 Z M 541.304688 153.214844 " fill-opacity="1" fill-rule="nonzero"/><path fill="#ffffff" d="M 613.863281 153.214844 C 606.933594 153.214844 600.640625 151.460938 594.992188 147.953125 C 589.445312 144.449219 585.023438 139.71875 581.714844 133.769531 C 578.519531 127.710938 576.917969 120.964844 576.917969 113.527344 C 576.917969 105.984375 578.519531 99.234375 581.714844 93.285156 C 585.023438 87.226562 589.445312 82.445312 594.992188 78.941406 C 600.640625 75.328125 606.933594 73.519531 613.863281 73.519531 C 619.726562 73.519531 624.898438 74.796875 629.375 77.34375 C 633.960938 79.789062 637.585938 83.191406 640.25 87.546875 C 642.914062 91.902344 644.246094 96.84375 644.246094 102.371094 L 644.246094 124.367188 C 644.246094 129.890625 642.914062 134.832031 640.25 139.1875 C 637.691406 143.546875 634.121094 147 629.535156 149.550781 C 624.949219 151.992188 619.726562 153.214844 613.863281 153.214844 Z M 616.742188 136.636719 C 623.242188 136.636719 628.46875 134.460938 632.414062 130.105469 C 636.464844 125.746094 638.492188 120.167969 638.492188 113.367188 C 638.492188 108.796875 637.585938 104.761719 635.773438 101.253906 C 633.960938 97.746094 631.398438 95.039062 628.09375 93.125 C 624.898438 91.105469 621.113281 90.097656 616.742188 90.097656 C 612.476562 90.097656 608.691406 91.105469 605.386719 93.125 C 602.1875 95.039062 599.628906 97.746094 597.710938 101.253906 C 595.898438 104.761719 594.992188 108.796875 594.992188 113.367188 C 594.992188 117.9375 595.898438 121.976562 597.710938 125.480469 C 599.628906 128.988281 602.1875 131.75 605.386719 133.769531 C 608.691406 135.683594 612.476562 136.636719 616.742188 136.636719 Z M 654.964844 151.621094 C 645.246094 151.621094 637.371094 143.746094 637.371094 134.027344 L 637.371094 131.058594 L 640.410156 112.410156 L 637.371094 93.921875 L 637.371094 75.113281 L 654.964844 75.113281 Z M 654.964844 151.621094 " fill-opacity="1" fill-rule="nonzero"/><path fill="#ffffff" d="M 699.523438 151.621094 C 689.808594 151.621094 681.933594 143.746094 681.933594 134.027344 L 681.933594 43.238281 L 699.523438 43.238281 Z M 663.542969 91.054688 L 663.542969 75.113281 L 717.917969 75.113281 L 717.917969 91.054688 Z M 663.542969 91.054688 " fill-opacity="1" fill-rule="nonzero"/></svg>